ISO-10303-21;
HEADER;
/* Generated by software containing ST-Developer
 * from STEP Tools, Inc. (www.steptools.com) 
 */

FILE_DESCRIPTION(
/* description */ (''),
/* implementation_level */ '2;1');

FILE_NAME(
/* name */ '3D_ESP32-BLUETOOTHSPEAKER-V1.1-BUTTON.step',
/* time_stamp */ '2025-12-15T13:41:25+08:00',
/* author */ (''),
/* organization */ (''),
/* preprocessor_version */ 'ST-DEVELOPER v20.1',
/* originating_system */ 'Autodesk Translation Framework v14.21.0.0',
/* authorisation */ '');

FILE_SCHEMA (('AUTOMOTIVE_DESIGN { 1 0 10303 214 3 1 1 }'));
ENDSEC;

DATA;
#10=MECHANICAL_DESIGN_GEOMETRIC_PRESENTATION_REPRESENTATION('',(#17),#913);
#11=ITEM_DEFINED_TRANSFORMATION($,$,#557,#602);
#12=(
REPRESENTATION_RELATIONSHIP($,$,#924,#923)
REPRESENTATION_RELATIONSHIP_WITH_TRANSFORMATION(#11)
SHAPE_REPRESENTATION_RELATIONSHIP()
);
#13=CONTEXT_DEPENDENT_SHAPE_REPRESENTATION(#12,#922);
#14=NEXT_ASSEMBLY_USAGE_OCCURRENCE('button:1','button:1','button:1',#926,
#927,'button:1');
#15=SHAPE_REPRESENTATION_RELATIONSHIP('SRR','None',#924,#16);
#16=ADVANCED_BREP_SHAPE_REPRESENTATION('',(#18),#912);
#17=STYLED_ITEM('',(#937),#18);
#18=MANIFOLD_SOLID_BREP('\X2\5B9E4F53\X0\1',#543);
#19=CYLINDRICAL_SURFACE('',#581,1.);
#20=CYLINDRICAL_SURFACE('',#584,1.);
#21=CYLINDRICAL_SURFACE('',#593,1.);
#22=CYLINDRICAL_SURFACE('',#595,1.);
#23=CIRCLE('',#567,0.500000000000002);
#24=CIRCLE('',#568,1.);
#25=CIRCLE('',#570,0.500000000000001);
#26=CIRCLE('',#571,1.);
#27=CIRCLE('',#575,0.500000000000001);
#28=CIRCLE('',#576,1.);
#29=CIRCLE('',#578,0.499999999999999);
#30=CIRCLE('',#579,1.);
#31=CIRCLE('',#582,1.);
#32=CIRCLE('',#585,1.);
#33=CIRCLE('',#589,1.);
#34=CIRCLE('',#590,1.);
#35=CONICAL_SURFACE('',#566,0.750000000000001,0.78539816339745);
#36=CONICAL_SURFACE('',#569,0.750000000000001,0.785398163397451);
#37=CONICAL_SURFACE('',#574,0.75,0.785398163397449);
#38=CONICAL_SURFACE('',#577,0.749999999999999,0.785398163397451);
#39=FACE_BOUND('',#80,.T.);
#40=FACE_BOUND('',#95,.T.);
#41=FACE_OUTER_BOUND('',#73,.T.);
#42=FACE_OUTER_BOUND('',#74,.T.);
#43=FACE_OUTER_BOUND('',#75,.T.);
#44=FACE_OUTER_BOUND('',#76,.T.);
#45=FACE_OUTER_BOUND('',#77,.T.);
#46=FACE_OUTER_BOUND('',#78,.T.);
#47=FACE_OUTER_BOUND('',#79,.T.);
#48=FACE_OUTER_BOUND('',#81,.T.);
#49=FACE_OUTER_BOUND('',#82,.T.);
#50=FACE_OUTER_BOUND('',#83,.T.);
#51=FACE_OUTER_BOUND('',#84,.T.);
#52=FACE_OUTER_BOUND('',#85,.T.);
#53=FACE_OUTER_BOUND('',#86,.T.);
#54=FACE_OUTER_BOUND('',#87,.T.);
#55=FACE_OUTER_BOUND('',#88,.T.);
#56=FACE_OUTER_BOUND('',#89,.T.);
#57=FACE_OUTER_BOUND('',#90,.T.);
#58=FACE_OUTER_BOUND('',#91,.T.);
#59=FACE_OUTER_BOUND('',#92,.T.);
#60=FACE_OUTER_BOUND('',#93,.T.);
#61=FACE_OUTER_BOUND('',#94,.T.);
#62=FACE_OUTER_BOUND('',#96,.T.);
#63=FACE_OUTER_BOUND('',#97,.T.);
#64=FACE_OUTER_BOUND('',#98,.T.);
#65=FACE_OUTER_BOUND('',#99,.T.);
#66=FACE_OUTER_BOUND('',#100,.T.);
#67=FACE_OUTER_BOUND('',#101,.T.);
#68=FACE_OUTER_BOUND('',#102,.T.);
#69=FACE_OUTER_BOUND('',#103,.T.);
#70=FACE_OUTER_BOUND('',#104,.T.);
#71=FACE_OUTER_BOUND('',#105,.T.);
#72=FACE_OUTER_BOUND('',#106,.T.);
#73=EDGE_LOOP('',(#343,#344,#345,#346));
#74=EDGE_LOOP('',(#347,#348,#349,#350));
#75=EDGE_LOOP('',(#351,#352,#353,#354));
#76=EDGE_LOOP('',(#355,#356,#357,#358));
#77=EDGE_LOOP('',(#359,#360,#361,#362));
#78=EDGE_LOOP('',(#363,#364,#365,#366));
#79=EDGE_LOOP('',(#367,#368,#369,#370));
#80=EDGE_LOOP('',(#371,#372,#373,#374));
#81=EDGE_LOOP('',(#375,#376,#377,#378));
#82=EDGE_LOOP('',(#379,#380,#381,#382));
#83=EDGE_LOOP('',(#383,#384,#385,#386));
#84=EDGE_LOOP('',(#387,#388,#389,#390));
#85=EDGE_LOOP('',(#391,#392,#393,#394));
#86=EDGE_LOOP('',(#395,#396,#397,#398));
#87=EDGE_LOOP('',(#399,#400,#401,#402));
#88=EDGE_LOOP('',(#403,#404,#405,#406));
#89=EDGE_LOOP('',(#407,#408,#409,#410));
#90=EDGE_LOOP('',(#411,#412,#413,#414));
#91=EDGE_LOOP('',(#415,#416,#417,#418));
#92=EDGE_LOOP('',(#419,#420,#421,#422));
#93=EDGE_LOOP('',(#423,#424,#425,#426,#427,#428,#429,#430));
#94=EDGE_LOOP('',(#431,#432,#433,#434,#435,#436,#437,#438));
#95=EDGE_LOOP('',(#439,#440,#441,#442));
#96=EDGE_LOOP('',(#443,#444,#445,#446));
#97=EDGE_LOOP('',(#447,#448,#449,#450));
#98=EDGE_LOOP('',(#451,#452,#453,#454));
#99=EDGE_LOOP('',(#455,#456,#457,#458));
#100=EDGE_LOOP('',(#459,#460,#461,#462));
#101=EDGE_LOOP('',(#463,#464,#465,#466));
#102=EDGE_LOOP('',(#467,#468,#469,#470));
#103=EDGE_LOOP('',(#471,#472,#473,#474));
#104=EDGE_LOOP('',(#475,#476,#477,#478));
#105=EDGE_LOOP('',(#479,#480,#481,#482));
#106=EDGE_LOOP('',(#483,#484,#485,#486));
#107=LINE('',#762,#167);
#108=LINE('',#764,#168);
#109=LINE('',#766,#169);
#110=LINE('',#767,#170);
#111=LINE('',#770,#171);
#112=LINE('',#772,#172);
#113=LINE('',#773,#173);
#114=LINE('',#776,#174);
#115=LINE('',#778,#175);
#116=LINE('',#779,#176);
#117=LINE('',#781,#177);
#118=LINE('',#782,#178);
#119=LINE('',#785,#179);
#120=LINE('',#787,#180);
#121=LINE('',#788,#181);
#122=LINE('',#791,#182);
#123=LINE('',#792,#183);
#124=LINE('',#796,#184);
#125=LINE('',#798,#185);
#126=LINE('',#800,#186);
#127=LINE('',#801,#187);
#128=LINE('',#805,#188);
#129=LINE('',#807,#189);
#130=LINE('',#809,#190);
#131=LINE('',#810,#191);
#132=LINE('',#815,#192);
#133=LINE('',#820,#193);
#134=LINE('',#825,#194);
#135=LINE('',#827,#195);
#136=LINE('',#828,#196);
#137=LINE('',#832,#197);
#138=LINE('',#833,#198);
#139=LINE('',#834,#199);
#140=LINE('',#839,#200);
#141=LINE('',#844,#201);
#142=LINE('',#848,#202);
#143=LINE('',#849,#203);
#144=LINE('',#852,#204);
#145=LINE('',#855,#205);
#146=LINE('',#858,#206);
#147=LINE('',#859,#207);
#148=LINE('',#862,#208);
#149=LINE('',#866,#209);
#150=LINE('',#867,#210);
#151=LINE('',#873,#211);
#152=LINE('',#876,#212);
#153=LINE('',#879,#213);
#154=LINE('',#881,#214);
#155=LINE('',#883,#215);
#156=LINE('',#884,#216);
#157=LINE('',#887,#217);
#158=LINE('',#888,#218);
#159=LINE('',#890,#219);
#160=LINE('',#891,#220);
#161=LINE('',#893,#221);
#162=LINE('',#897,#222);
#163=LINE('',#900,#223);
#164=LINE('',#901,#224);
#165=LINE('',#903,#225);
#166=LINE('',#905,#226);
#167=VECTOR('',#609,10.);
#168=VECTOR('',#610,10.);
#169=VECTOR('',#611,10.);
#170=VECTOR('',#612,10.);
#171=VECTOR('',#615,10.);
#172=VECTOR('',#616,10.);
#173=VECTOR('',#617,10.);
#174=VECTOR('',#620,10.);
#175=VECTOR('',#621,10.);
#176=VECTOR('',#622,10.);
#177=VECTOR('',#625,10.);
#178=VECTOR('',#626,10.);
#179=VECTOR('',#629,10.);
#180=VECTOR('',#630,10.);
#181=VECTOR('',#631,10.);
#182=VECTOR('',#634,10.);
#183=VECTOR('',#635,10.);
#184=VECTOR('',#638,10.);
#185=VECTOR('',#639,10.);
#186=VECTOR('',#640,10.);
#187=VECTOR('',#641,10.);
#188=VECTOR('',#644,10.);
#189=VECTOR('',#645,10.);
#190=VECTOR('',#646,10.);
#191=VECTOR('',#647,10.);
#192=VECTOR('',#652,10.);
#193=VECTOR('',#657,10.);
#194=VECTOR('',#664,10.);
#195=VECTOR('',#665,10.);
#196=VECTOR('',#666,10.);
#197=VECTOR('',#669,10.);
#198=VECTOR('',#670,10.);
#199=VECTOR('',#671,10.);
#200=VECTOR('',#676,10.);
#201=VECTOR('',#681,10.);
#202=VECTOR('',#688,10.);
#203=VECTOR('',#689,10.);
#204=VECTOR('',#692,10.);
#205=VECTOR('',#695,10.);
#206=VECTOR('',#698,10.);
#207=VECTOR('',#699,10.);
#208=VECTOR('',#702,10.);
#209=VECTOR('',#707,10.);
#210=VECTOR('',#708,10.);
#211=VECTOR('',#715,10.);
#212=VECTOR('',#718,10.);
#213=VECTOR('',#719,10.);
#214=VECTOR('',#720,10.);
#215=VECTOR('',#721,10.);
#216=VECTOR('',#722,10.);
#217=VECTOR('',#725,10.);
#218=VECTOR('',#726,10.);
#219=VECTOR('',#729,10.);
#220=VECTOR('',#730,10.);
#221=VECTOR('',#733,10.);
#222=VECTOR('',#740,10.);
#223=VECTOR('',#745,10.);
#224=VECTOR('',#746,10.);
#225=VECTOR('',#749,10.);
#226=VECTOR('',#752,10.);
#227=VERTEX_POINT('',#760);
#228=VERTEX_POINT('',#761);
#229=VERTEX_POINT('',#763);
#230=VERTEX_POINT('',#765);
#231=VERTEX_POINT('',#769);
#232=VERTEX_POINT('',#771);
#233=VERTEX_POINT('',#775);
#234=VERTEX_POINT('',#777);
#235=VERTEX_POINT('',#784);
#236=VERTEX_POINT('',#786);
#237=VERTEX_POINT('',#790);
#238=VERTEX_POINT('',#794);
#239=VERTEX_POINT('',#795);
#240=VERTEX_POINT('',#797);
#241=VERTEX_POINT('',#799);
#242=VERTEX_POINT('',#803);
#243=VERTEX_POINT('',#804);
#244=VERTEX_POINT('',#806);
#245=VERTEX_POINT('',#808);
#246=VERTEX_POINT('',#812);
#247=VERTEX_POINT('',#814);
#248=VERTEX_POINT('',#818);
#249=VERTEX_POINT('',#819);
#250=VERTEX_POINT('',#824);
#251=VERTEX_POINT('',#826);
#252=VERTEX_POINT('',#830);
#253=VERTEX_POINT('',#831);
#254=VERTEX_POINT('',#836);
#255=VERTEX_POINT('',#838);
#256=VERTEX_POINT('',#842);
#257=VERTEX_POINT('',#843);
#258=VERTEX_POINT('',#851);
#259=VERTEX_POINT('',#853);
#260=VERTEX_POINT('',#857);
#261=VERTEX_POINT('',#861);
#262=VERTEX_POINT('',#865);
#263=VERTEX_POINT('',#870);
#264=VERTEX_POINT('',#872);
#265=VERTEX_POINT('',#874);
#266=VERTEX_POINT('',#877);
#267=VERTEX_POINT('',#878);
#268=VERTEX_POINT('',#880);
#269=VERTEX_POINT('',#882);
#270=VERTEX_POINT('',#886);
#271=EDGE_CURVE('',#227,#228,#107,.T.);
#272=EDGE_CURVE('',#228,#229,#108,.T.);
#273=EDGE_CURVE('',#229,#230,#109,.T.);
#274=EDGE_CURVE('',#230,#227,#110,.T.);
#275=EDGE_CURVE('',#230,#231,#111,.T.);
#276=EDGE_CURVE('',#231,#232,#112,.T.);
#277=EDGE_CURVE('',#232,#227,#113,.T.);
#278=EDGE_CURVE('',#233,#232,#114,.T.);
#279=EDGE_CURVE('',#231,#234,#115,.T.);
#280=EDGE_CURVE('',#234,#233,#116,.T.);
#281=EDGE_CURVE('',#228,#233,#117,.T.);
#282=EDGE_CURVE('',#234,#229,#118,.T.);
#283=EDGE_CURVE('',#228,#235,#119,.T.);
#284=EDGE_CURVE('',#236,#235,#120,.T.);
#285=EDGE_CURVE('',#233,#236,#121,.T.);
#286=EDGE_CURVE('',#227,#237,#122,.T.);
#287=EDGE_CURVE('',#235,#237,#123,.T.);
#288=EDGE_CURVE('',#238,#239,#124,.T.);
#289=EDGE_CURVE('',#239,#240,#125,.T.);
#290=EDGE_CURVE('',#240,#241,#126,.T.);
#291=EDGE_CURVE('',#241,#238,#127,.T.);
#292=EDGE_CURVE('',#242,#243,#128,.T.);
#293=EDGE_CURVE('',#243,#244,#129,.T.);
#294=EDGE_CURVE('',#244,#245,#130,.T.);
#295=EDGE_CURVE('',#245,#242,#131,.T.);
#296=EDGE_CURVE('',#244,#246,#23,.T.);
#297=EDGE_CURVE('',#246,#247,#132,.T.);
#298=EDGE_CURVE('',#247,#245,#24,.T.);
#299=EDGE_CURVE('',#248,#249,#133,.T.);
#300=EDGE_CURVE('',#249,#243,#25,.T.);
#301=EDGE_CURVE('',#242,#248,#26,.T.);
#302=EDGE_CURVE('',#246,#250,#134,.T.);
#303=EDGE_CURVE('',#250,#251,#135,.T.);
#304=EDGE_CURVE('',#251,#247,#136,.T.);
#305=EDGE_CURVE('',#252,#253,#137,.T.);
#306=EDGE_CURVE('',#253,#249,#138,.T.);
#307=EDGE_CURVE('',#248,#252,#139,.T.);
#308=EDGE_CURVE('',#250,#254,#27,.T.);
#309=EDGE_CURVE('',#254,#255,#140,.T.);
#310=EDGE_CURVE('',#255,#251,#28,.T.);
#311=EDGE_CURVE('',#256,#257,#141,.T.);
#312=EDGE_CURVE('',#257,#253,#29,.T.);
#313=EDGE_CURVE('',#252,#256,#30,.T.);
#314=EDGE_CURVE('',#254,#257,#142,.T.);
#315=EDGE_CURVE('',#256,#255,#143,.T.);
#316=EDGE_CURVE('',#258,#252,#144,.T.);
#317=EDGE_CURVE('',#258,#259,#31,.T.);
#318=EDGE_CURVE('',#259,#256,#145,.T.);
#319=EDGE_CURVE('',#260,#248,#146,.T.);
#320=EDGE_CURVE('',#258,#260,#147,.T.);
#321=EDGE_CURVE('',#261,#242,#148,.T.);
#322=EDGE_CURVE('',#261,#260,#32,.T.);
#323=EDGE_CURVE('',#262,#245,#149,.T.);
#324=EDGE_CURVE('',#261,#262,#150,.T.);
#325=EDGE_CURVE('',#263,#262,#33,.T.);
#326=EDGE_CURVE('',#263,#264,#151,.T.);
#327=EDGE_CURVE('',#265,#264,#34,.T.);
#328=EDGE_CURVE('',#265,#259,#152,.T.);
#329=EDGE_CURVE('',#266,#267,#153,.T.);
#330=EDGE_CURVE('',#267,#268,#154,.T.);
#331=EDGE_CURVE('',#268,#269,#155,.T.);
#332=EDGE_CURVE('',#269,#266,#156,.T.);
#333=EDGE_CURVE('',#237,#270,#157,.T.);
#334=EDGE_CURVE('',#270,#236,#158,.T.);
#335=EDGE_CURVE('',#264,#251,#159,.T.);
#336=EDGE_CURVE('',#263,#247,#160,.T.);
#337=EDGE_CURVE('',#265,#255,#161,.T.);
#338=EDGE_CURVE('',#232,#270,#162,.T.);
#339=EDGE_CURVE('',#239,#267,#163,.T.);
#340=EDGE_CURVE('',#240,#266,#164,.T.);
#341=EDGE_CURVE('',#241,#269,#165,.T.);
#342=EDGE_CURVE('',#238,#268,#166,.T.);
#343=ORIENTED_EDGE('',*,*,#271,.T.);
#344=ORIENTED_EDGE('',*,*,#272,.T.);
#345=ORIENTED_EDGE('',*,*,#273,.T.);
#346=ORIENTED_EDGE('',*,*,#274,.T.);
#347=ORIENTED_EDGE('',*,*,#275,.T.);
#348=ORIENTED_EDGE('',*,*,#276,.T.);
#349=ORIENTED_EDGE('',*,*,#277,.T.);
#350=ORIENTED_EDGE('',*,*,#274,.F.);
#351=ORIENTED_EDGE('',*,*,#278,.T.);
#352=ORIENTED_EDGE('',*,*,#276,.F.);
#353=ORIENTED_EDGE('',*,*,#279,.T.);
#354=ORIENTED_EDGE('',*,*,#280,.T.);
#355=ORIENTED_EDGE('',*,*,#281,.T.);
#356=ORIENTED_EDGE('',*,*,#280,.F.);
#357=ORIENTED_EDGE('',*,*,#282,.T.);
#358=ORIENTED_EDGE('',*,*,#272,.F.);
#359=ORIENTED_EDGE('',*,*,#281,.F.);
#360=ORIENTED_EDGE('',*,*,#283,.T.);
#361=ORIENTED_EDGE('',*,*,#284,.F.);
#362=ORIENTED_EDGE('',*,*,#285,.F.);
#363=ORIENTED_EDGE('',*,*,#271,.F.);
#364=ORIENTED_EDGE('',*,*,#286,.T.);
#365=ORIENTED_EDGE('',*,*,#287,.F.);
#366=ORIENTED_EDGE('',*,*,#283,.F.);
#367=ORIENTED_EDGE('',*,*,#288,.T.);
#368=ORIENTED_EDGE('',*,*,#289,.T.);
#369=ORIENTED_EDGE('',*,*,#290,.T.);
#370=ORIENTED_EDGE('',*,*,#291,.T.);
#371=ORIENTED_EDGE('',*,*,#273,.F.);
#372=ORIENTED_EDGE('',*,*,#282,.F.);
#373=ORIENTED_EDGE('',*,*,#279,.F.);
#374=ORIENTED_EDGE('',*,*,#275,.F.);
#375=ORIENTED_EDGE('',*,*,#292,.T.);
#376=ORIENTED_EDGE('',*,*,#293,.T.);
#377=ORIENTED_EDGE('',*,*,#294,.T.);
#378=ORIENTED_EDGE('',*,*,#295,.T.);
#379=ORIENTED_EDGE('',*,*,#294,.F.);
#380=ORIENTED_EDGE('',*,*,#296,.T.);
#381=ORIENTED_EDGE('',*,*,#297,.T.);
#382=ORIENTED_EDGE('',*,*,#298,.T.);
#383=ORIENTED_EDGE('',*,*,#299,.T.);
#384=ORIENTED_EDGE('',*,*,#300,.T.);
#385=ORIENTED_EDGE('',*,*,#292,.F.);
#386=ORIENTED_EDGE('',*,*,#301,.T.);
#387=ORIENTED_EDGE('',*,*,#297,.F.);
#388=ORIENTED_EDGE('',*,*,#302,.T.);
#389=ORIENTED_EDGE('',*,*,#303,.T.);
#390=ORIENTED_EDGE('',*,*,#304,.T.);
#391=ORIENTED_EDGE('',*,*,#305,.T.);
#392=ORIENTED_EDGE('',*,*,#306,.T.);
#393=ORIENTED_EDGE('',*,*,#299,.F.);
#394=ORIENTED_EDGE('',*,*,#307,.T.);
#395=ORIENTED_EDGE('',*,*,#303,.F.);
#396=ORIENTED_EDGE('',*,*,#308,.T.);
#397=ORIENTED_EDGE('',*,*,#309,.T.);
#398=ORIENTED_EDGE('',*,*,#310,.T.);
#399=ORIENTED_EDGE('',*,*,#311,.T.);
#400=ORIENTED_EDGE('',*,*,#312,.T.);
#401=ORIENTED_EDGE('',*,*,#305,.F.);
#402=ORIENTED_EDGE('',*,*,#313,.T.);
#403=ORIENTED_EDGE('',*,*,#309,.F.);
#404=ORIENTED_EDGE('',*,*,#314,.T.);
#405=ORIENTED_EDGE('',*,*,#311,.F.);
#406=ORIENTED_EDGE('',*,*,#315,.T.);
#407=ORIENTED_EDGE('',*,*,#313,.F.);
#408=ORIENTED_EDGE('',*,*,#316,.F.);
#409=ORIENTED_EDGE('',*,*,#317,.T.);
#410=ORIENTED_EDGE('',*,*,#318,.T.);
#411=ORIENTED_EDGE('',*,*,#307,.F.);
#412=ORIENTED_EDGE('',*,*,#319,.F.);
#413=ORIENTED_EDGE('',*,*,#320,.F.);
#414=ORIENTED_EDGE('',*,*,#316,.T.);
#415=ORIENTED_EDGE('',*,*,#301,.F.);
#416=ORIENTED_EDGE('',*,*,#321,.F.);
#417=ORIENTED_EDGE('',*,*,#322,.T.);
#418=ORIENTED_EDGE('',*,*,#319,.T.);
#419=ORIENTED_EDGE('',*,*,#295,.F.);
#420=ORIENTED_EDGE('',*,*,#323,.F.);
#421=ORIENTED_EDGE('',*,*,#324,.F.);
#422=ORIENTED_EDGE('',*,*,#321,.T.);
#423=ORIENTED_EDGE('',*,*,#293,.F.);
#424=ORIENTED_EDGE('',*,*,#300,.F.);
#425=ORIENTED_EDGE('',*,*,#306,.F.);
#426=ORIENTED_EDGE('',*,*,#312,.F.);
#427=ORIENTED_EDGE('',*,*,#314,.F.);
#428=ORIENTED_EDGE('',*,*,#308,.F.);
#429=ORIENTED_EDGE('',*,*,#302,.F.);
#430=ORIENTED_EDGE('',*,*,#296,.F.);
#431=ORIENTED_EDGE('',*,*,#325,.F.);
#432=ORIENTED_EDGE('',*,*,#326,.T.);
#433=ORIENTED_EDGE('',*,*,#327,.F.);
#434=ORIENTED_EDGE('',*,*,#328,.T.);
#435=ORIENTED_EDGE('',*,*,#317,.F.);
#436=ORIENTED_EDGE('',*,*,#320,.T.);
#437=ORIENTED_EDGE('',*,*,#322,.F.);
#438=ORIENTED_EDGE('',*,*,#324,.T.);
#439=ORIENTED_EDGE('',*,*,#329,.T.);
#440=ORIENTED_EDGE('',*,*,#330,.T.);
#441=ORIENTED_EDGE('',*,*,#331,.T.);
#442=ORIENTED_EDGE('',*,*,#332,.T.);
#443=ORIENTED_EDGE('',*,*,#284,.T.);
#444=ORIENTED_EDGE('',*,*,#287,.T.);
#445=ORIENTED_EDGE('',*,*,#333,.T.);
#446=ORIENTED_EDGE('',*,*,#334,.T.);
#447=ORIENTED_EDGE('',*,*,#304,.F.);
#448=ORIENTED_EDGE('',*,*,#335,.F.);
#449=ORIENTED_EDGE('',*,*,#326,.F.);
#450=ORIENTED_EDGE('',*,*,#336,.T.);
#451=ORIENTED_EDGE('',*,*,#310,.F.);
#452=ORIENTED_EDGE('',*,*,#337,.F.);
#453=ORIENTED_EDGE('',*,*,#327,.T.);
#454=ORIENTED_EDGE('',*,*,#335,.T.);
#455=ORIENTED_EDGE('',*,*,#315,.F.);
#456=ORIENTED_EDGE('',*,*,#318,.F.);
#457=ORIENTED_EDGE('',*,*,#328,.F.);
#458=ORIENTED_EDGE('',*,*,#337,.T.);
#459=ORIENTED_EDGE('',*,*,#298,.F.);
#460=ORIENTED_EDGE('',*,*,#336,.F.);
#461=ORIENTED_EDGE('',*,*,#325,.T.);
#462=ORIENTED_EDGE('',*,*,#323,.T.);
#463=ORIENTED_EDGE('',*,*,#278,.F.);
#464=ORIENTED_EDGE('',*,*,#285,.T.);
#465=ORIENTED_EDGE('',*,*,#334,.F.);
#466=ORIENTED_EDGE('',*,*,#338,.F.);
#467=ORIENTED_EDGE('',*,*,#277,.F.);
#468=ORIENTED_EDGE('',*,*,#338,.T.);
#469=ORIENTED_EDGE('',*,*,#333,.F.);
#470=ORIENTED_EDGE('',*,*,#286,.F.);
#471=ORIENTED_EDGE('',*,*,#289,.F.);
#472=ORIENTED_EDGE('',*,*,#339,.T.);
#473=ORIENTED_EDGE('',*,*,#329,.F.);
#474=ORIENTED_EDGE('',*,*,#340,.F.);
#475=ORIENTED_EDGE('',*,*,#290,.F.);
#476=ORIENTED_EDGE('',*,*,#340,.T.);
#477=ORIENTED_EDGE('',*,*,#332,.F.);
#478=ORIENTED_EDGE('',*,*,#341,.F.);
#479=ORIENTED_EDGE('',*,*,#291,.F.);
#480=ORIENTED_EDGE('',*,*,#341,.T.);
#481=ORIENTED_EDGE('',*,*,#331,.F.);
#482=ORIENTED_EDGE('',*,*,#342,.F.);
#483=ORIENTED_EDGE('',*,*,#288,.F.);
#484=ORIENTED_EDGE('',*,*,#342,.T.);
#485=ORIENTED_EDGE('',*,*,#330,.F.);
#486=ORIENTED_EDGE('',*,*,#339,.F.);
#487=PLANE('',#558);
#488=PLANE('',#559);
#489=PLANE('',#560);
#490=PLANE('',#561);
#491=PLANE('',#562);
#492=PLANE('',#563);
#493=PLANE('',#564);
#494=PLANE('',#565);
#495=PLANE('',#572);
#496=PLANE('',#573);
#497=PLANE('',#580);
#498=PLANE('',#583);
#499=PLANE('',#586);
#500=PLANE('',#587);
#501=PLANE('',#588);
#502=PLANE('',#591);
#503=PLANE('',#592);
#504=PLANE('',#594);
#505=PLANE('',#596);
#506=PLANE('',#597);
#507=PLANE('',#598);
#508=PLANE('',#599);
#509=PLANE('',#600);
#510=PLANE('',#601);
#511=ADVANCED_FACE('',(#41),#487,.T.);
#512=ADVANCED_FACE('',(#42),#488,.T.);
#513=ADVANCED_FACE('',(#43),#489,.T.);
#514=ADVANCED_FACE('',(#44),#490,.T.);
#515=ADVANCED_FACE('',(#45),#491,.T.);
#516=ADVANCED_FACE('',(#46),#492,.T.);
#517=ADVANCED_FACE('',(#47,#39),#493,.F.);
#518=ADVANCED_FACE('',(#48),#494,.T.);
#519=ADVANCED_FACE('',(#49),#35,.T.);
#520=ADVANCED_FACE('',(#50),#36,.T.);
#521=ADVANCED_FACE('',(#51),#495,.T.);
#522=ADVANCED_FACE('',(#52),#496,.T.);
#523=ADVANCED_FACE('',(#53),#37,.T.);
#524=ADVANCED_FACE('',(#54),#38,.T.);
#525=ADVANCED_FACE('',(#55),#497,.T.);
#526=ADVANCED_FACE('',(#56),#19,.T.);
#527=ADVANCED_FACE('',(#57),#498,.T.);
#528=ADVANCED_FACE('',(#58),#20,.T.);
#529=ADVANCED_FACE('',(#59),#499,.T.);
#530=ADVANCED_FACE('',(#60),#500,.T.);
#531=ADVANCED_FACE('',(#61,#40),#501,.F.);
#532=ADVANCED_FACE('',(#62),#502,.F.);
#533=ADVANCED_FACE('',(#63),#503,.T.);
#534=ADVANCED_FACE('',(#64),#21,.T.);
#535=ADVANCED_FACE('',(#65),#504,.T.);
#536=ADVANCED_FACE('',(#66),#22,.T.);
#537=ADVANCED_FACE('',(#67),#505,.T.);
#538=ADVANCED_FACE('',(#68),#506,.T.);
#539=ADVANCED_FACE('',(#69),#507,.T.);
#540=ADVANCED_FACE('',(#70),#508,.T.);
#541=ADVANCED_FACE('',(#71),#509,.T.);
#542=ADVANCED_FACE('',(#72),#510,.T.);
#543=CLOSED_SHELL('',(#511,#512,#513,#514,#515,#516,#517,#518,#519,#520,
#521,#522,#523,#524,#525,#526,#527,#528,#529,#530,#531,#532,#533,#534,#535,
#536,#537,#538,#539,#540,#541,#542));
#544=DERIVED_UNIT_ELEMENT(#546,1.);
#545=DERIVED_UNIT_ELEMENT(#915,-3.);
#546=(
MASS_UNIT()
NAMED_UNIT(*)
SI_UNIT(.KILO.,.GRAM.)
);
#547=DERIVED_UNIT((#544,#545));
#548=MEASURE_REPRESENTATION_ITEM('density measure',
POSITIVE_RATIO_MEASURE(7850.),#547);
#549=PROPERTY_DEFINITION_REPRESENTATION(#554,#551);
#550=PROPERTY_DEFINITION_REPRESENTATION(#555,#552);
#551=REPRESENTATION('material name',(#553),#912);
#552=REPRESENTATION('density',(#548),#912);
#553=DESCRIPTIVE_REPRESENTATION_ITEM('\X2\94A2\X0\','\X2\94A2\X0\');
#554=PROPERTY_DEFINITION('material property','material name',#927);
#555=PROPERTY_DEFINITION('material property','density of part',#927);
#556=AXIS2_PLACEMENT_3D('',#757,#603,#604);
#557=AXIS2_PLACEMENT_3D('',#758,#605,#606);
#558=AXIS2_PLACEMENT_3D('',#759,#607,#608);
#559=AXIS2_PLACEMENT_3D('',#768,#613,#614);
#560=AXIS2_PLACEMENT_3D('',#774,#618,#619);
#561=AXIS2_PLACEMENT_3D('',#780,#623,#624);
#562=AXIS2_PLACEMENT_3D('',#783,#627,#628);
#563=AXIS2_PLACEMENT_3D('',#789,#632,#633);
#564=AXIS2_PLACEMENT_3D('',#793,#636,#637);
#565=AXIS2_PLACEMENT_3D('',#802,#642,#643);
#566=AXIS2_PLACEMENT_3D('',#811,#648,#649);
#567=AXIS2_PLACEMENT_3D('',#813,#650,#651);
#568=AXIS2_PLACEMENT_3D('',#816,#653,#654);
#569=AXIS2_PLACEMENT_3D('',#817,#655,#656);
#570=AXIS2_PLACEMENT_3D('',#821,#658,#659);
#571=AXIS2_PLACEMENT_3D('',#822,#660,#661);
#572=AXIS2_PLACEMENT_3D('',#823,#662,#663);
#573=AXIS2_PLACEMENT_3D('',#829,#667,#668);
#574=AXIS2_PLACEMENT_3D('',#835,#672,#673);
#575=AXIS2_PLACEMENT_3D('',#837,#674,#675);
#576=AXIS2_PLACEMENT_3D('',#840,#677,#678);
#577=AXIS2_PLACEMENT_3D('',#841,#679,#680);
#578=AXIS2_PLACEMENT_3D('',#845,#682,#683);
#579=AXIS2_PLACEMENT_3D('',#846,#684,#685);
#580=AXIS2_PLACEMENT_3D('',#847,#686,#687);
#581=AXIS2_PLACEMENT_3D('',#850,#690,#691);
#582=AXIS2_PLACEMENT_3D('',#854,#693,#694);
#583=AXIS2_PLACEMENT_3D('',#856,#696,#697);
#584=AXIS2_PLACEMENT_3D('',#860,#700,#701);
#585=AXIS2_PLACEMENT_3D('',#863,#703,#704);
#586=AXIS2_PLACEMENT_3D('',#864,#705,#706);
#587=AXIS2_PLACEMENT_3D('',#868,#709,#710);
#588=AXIS2_PLACEMENT_3D('',#869,#711,#712);
#589=AXIS2_PLACEMENT_3D('',#871,#713,#714);
#590=AXIS2_PLACEMENT_3D('',#875,#716,#717);
#591=AXIS2_PLACEMENT_3D('',#885,#723,#724);
#592=AXIS2_PLACEMENT_3D('',#889,#727,#728);
#593=AXIS2_PLACEMENT_3D('',#892,#731,#732);
#594=AXIS2_PLACEMENT_3D('',#894,#734,#735);
#595=AXIS2_PLACEMENT_3D('',#895,#736,#737);
#596=AXIS2_PLACEMENT_3D('',#896,#738,#739);
#597=AXIS2_PLACEMENT_3D('',#898,#741,#742);
#598=AXIS2_PLACEMENT_3D('',#899,#743,#744);
#599=AXIS2_PLACEMENT_3D('',#902,#747,#748);
#600=AXIS2_PLACEMENT_3D('',#904,#750,#751);
#601=AXIS2_PLACEMENT_3D('',#906,#753,#754);
#602=AXIS2_PLACEMENT_3D('',#907,#755,#756);
#603=DIRECTION('axis',(0.,0.,1.));
#604=DIRECTION('refdir',(1.,0.,0.));
#605=DIRECTION('axis',(0.,0.,1.));
#606=DIRECTION('refdir',(1.,0.,0.));
#607=DIRECTION('center_axis',(-2.40172986677971E-17,-0.196116135138184,
0.98058067569092));
#608=DIRECTION('ref_axis',(1.,0.,2.44929349141766E-17));
#609=DIRECTION('',(-1.,1.22464674570883E-16,0.));
#610=DIRECTION('',(-0.192450089729874,-0.962250448649377,-0.192450089729875));
#611=DIRECTION('',(1.,-1.22464674570883E-16,0.));
#612=DIRECTION('',(-0.192450089729875,0.962250448649376,0.192450089729875));
#613=DIRECTION('center_axis',(-0.98058067569092,-0.196116135138184,-1.28078033402622E-15));
#614=DIRECTION('ref_axis',(-1.30614478316512E-15,0.,1.));
#615=DIRECTION('',(-1.30614478316512E-15,1.59956595812773E-31,1.));
#616=DIRECTION('',(-0.192450089729873,0.962250448649377,-0.192450089729875));
#617=DIRECTION('',(1.30614478316512E-15,-1.59956595812773E-31,-1.));
#618=DIRECTION('center_axis',(-6.64407465680907E-16,-0.196116135138184,
-0.98058067569092));
#619=DIRECTION('ref_axis',(-1.,0.,6.77565326496735E-16));
#620=DIRECTION('',(1.,-1.22464674570883E-16,-6.53072391582558E-16));
#621=DIRECTION('',(-1.,1.22464674570883E-16,6.53072391582558E-16));
#622=DIRECTION('',(0.192450089729874,0.962250448649377,-0.192450089729875));
#623=DIRECTION('center_axis',(0.98058067569092,-0.196116135138183,0.));
#624=DIRECTION('ref_axis',(0.,0.,-1.));
#625=DIRECTION('',(0.,0.,1.));
#626=DIRECTION('',(0.,0.,-1.));
#627=DIRECTION('center_axis',(1.,0.,0.));
#628=DIRECTION('ref_axis',(0.,0.,-1.));
#629=DIRECTION('',(0.,1.,0.));
#630=DIRECTION('',(0.,0.,-1.));
#631=DIRECTION('',(0.,1.,0.));
#632=DIRECTION('center_axis',(0.,0.,1.));
#633=DIRECTION('ref_axis',(1.,-1.22464674570883E-16,0.));
#634=DIRECTION('',(0.,1.,0.));
#635=DIRECTION('',(1.,-1.22464674570883E-16,0.));
#636=DIRECTION('center_axis',(1.22464674570883E-16,1.,0.));
#637=DIRECTION('ref_axis',(-1.,1.22464674570883E-16,0.));
#638=DIRECTION('',(1.,-1.22464674570883E-16,0.));
#639=DIRECTION('',(0.,0.,1.));
#640=DIRECTION('',(-1.,1.22464674570883E-16,0.));
#641=DIRECTION('',(0.,0.,-1.));
#642=DIRECTION('center_axis',(0.,0.707106781186555,-0.70710678118654));
#643=DIRECTION('ref_axis',(-1.,0.,0.));
#644=DIRECTION('',(0.,0.70710678118654,0.707106781186555));
#645=DIRECTION('',(1.,0.,0.));
#646=DIRECTION('',(0.,-0.70710678118654,-0.707106781186555));
#647=DIRECTION('',(-1.,0.,0.));
#648=DIRECTION('center_axis',(0.,-1.,0.));
#649=DIRECTION('ref_axis',(1.,0.,0.));
#650=DIRECTION('center_axis',(0.,-1.,0.));
#651=DIRECTION('ref_axis',(1.,0.,0.));
#652=DIRECTION('',(0.707106781186548,-0.707106781186548,0.));
#653=DIRECTION('center_axis',(0.,1.,0.));
#654=DIRECTION('ref_axis',(1.,0.,0.));
#655=DIRECTION('center_axis',(0.,-1.,0.));
#656=DIRECTION('ref_axis',(-1.11022302462516E-15,0.,-1.));
#657=DIRECTION('',(0.707106781186549,0.707106781186546,7.85046229341889E-16));
#658=DIRECTION('center_axis',(0.,-1.,0.));
#659=DIRECTION('ref_axis',(-1.11022302462516E-15,0.,-1.));
#660=DIRECTION('center_axis',(0.,1.,0.));
#661=DIRECTION('ref_axis',(-1.11022302462516E-15,0.,-1.));
#662=DIRECTION('center_axis',(0.70710678118654,0.707106781186555,0.));
#663=DIRECTION('ref_axis',(0.,0.,-1.));
#664=DIRECTION('',(0.,0.,1.));
#665=DIRECTION('',(0.707106781186555,-0.70710678118654,0.));
#666=DIRECTION('',(0.,0.,-1.));
#667=DIRECTION('center_axis',(-0.70710678118654,0.707106781186555,0.));
#668=DIRECTION('ref_axis',(0.,0.,1.));
#669=DIRECTION('',(0.707106781186555,0.70710678118654,0.));
#670=DIRECTION('',(0.,0.,-1.));
#671=DIRECTION('',(0.,0.,1.));
#672=DIRECTION('center_axis',(0.,-1.,0.));
#673=DIRECTION('ref_axis',(0.,0.,1.));
#674=DIRECTION('center_axis',(0.,-1.,0.));
#675=DIRECTION('ref_axis',(0.,0.,1.));
#676=DIRECTION('',(0.,-0.707106781186547,0.707106781186548));
#677=DIRECTION('center_axis',(0.,1.,0.));
#678=DIRECTION('ref_axis',(0.,0.,1.));
#679=DIRECTION('center_axis',(0.,-1.,0.));
#680=DIRECTION('ref_axis',(-1.,0.,0.));
#681=DIRECTION('',(0.,0.707106781186546,-0.707106781186549));
#682=DIRECTION('center_axis',(0.,-1.,0.));
#683=DIRECTION('ref_axis',(-1.,0.,0.));
#684=DIRECTION('center_axis',(0.,1.,0.));
#685=DIRECTION('ref_axis',(-1.,0.,0.));
#686=DIRECTION('center_axis',(0.,0.707106781186555,0.70710678118654));
#687=DIRECTION('ref_axis',(1.,0.,0.));
#688=DIRECTION('',(-1.,0.,0.));
#689=DIRECTION('',(1.,0.,0.));
#690=DIRECTION('center_axis',(0.,1.,0.));
#691=DIRECTION('ref_axis',(-1.,0.,0.));
#692=DIRECTION('',(0.,1.,0.));
#693=DIRECTION('center_axis',(0.,1.,0.));
#694=DIRECTION('ref_axis',(-1.,0.,0.));
#695=DIRECTION('',(0.,1.,0.));
#696=DIRECTION('center_axis',(-1.,0.,0.));
#697=DIRECTION('ref_axis',(0.,0.,1.));
#698=DIRECTION('',(0.,1.,0.));
#699=DIRECTION('',(0.,0.,-1.));
#700=DIRECTION('center_axis',(0.,1.,0.));
#701=DIRECTION('ref_axis',(-1.11022302462516E-15,0.,-1.));
#702=DIRECTION('',(0.,1.,0.));
#703=DIRECTION('center_axis',(0.,1.,0.));
#704=DIRECTION('ref_axis',(-1.11022302462516E-15,0.,-1.));
#705=DIRECTION('center_axis',(0.,0.,-1.));
#706=DIRECTION('ref_axis',(-1.,0.,0.));
#707=DIRECTION('',(0.,1.,0.));
#708=DIRECTION('',(1.,0.,0.));
#709=DIRECTION('center_axis',(0.,1.,0.));
#710=DIRECTION('ref_axis',(-1.,0.,0.));
#711=DIRECTION('center_axis',(0.,1.,0.));
#712=DIRECTION('ref_axis',(-1.,0.,0.));
#713=DIRECTION('center_axis',(0.,1.,0.));
#714=DIRECTION('ref_axis',(1.,0.,0.));
#715=DIRECTION('',(0.,0.,1.));
#716=DIRECTION('center_axis',(0.,1.,0.));
#717=DIRECTION('ref_axis',(0.,0.,1.));
#718=DIRECTION('',(-1.,0.,0.));
#719=DIRECTION('',(0.,0.,-1.));
#720=DIRECTION('',(-1.,1.22464674570883E-16,0.));
#721=DIRECTION('',(0.,0.,1.));
#722=DIRECTION('',(1.,-1.22464674570883E-16,0.));
#723=DIRECTION('center_axis',(0.,1.,0.));
#724=DIRECTION('ref_axis',(-1.,0.,0.));
#725=DIRECTION('',(-1.30614478316512E-15,1.59956595812773E-31,1.));
#726=DIRECTION('',(-1.,1.22464674570883E-16,6.53072391582558E-16));
#727=DIRECTION('center_axis',(1.,0.,0.));
#728=DIRECTION('ref_axis',(0.,0.,-1.));
#729=DIRECTION('',(0.,1.,0.));
#730=DIRECTION('',(0.,1.,0.));
#731=DIRECTION('center_axis',(0.,1.,0.));
#732=DIRECTION('ref_axis',(0.,0.,1.));
#733=DIRECTION('',(0.,1.,0.));
#734=DIRECTION('center_axis',(0.,0.,1.));
#735=DIRECTION('ref_axis',(1.,0.,0.));
#736=DIRECTION('center_axis',(0.,1.,0.));
#737=DIRECTION('ref_axis',(1.,0.,0.));
#738=DIRECTION('center_axis',(-6.53072391582558E-16,0.,-1.));
#739=DIRECTION('ref_axis',(-1.,1.22464674570883E-16,6.53072391582558E-16));
#740=DIRECTION('',(0.,1.,0.));
#741=DIRECTION('center_axis',(-1.,0.,-1.30614478316512E-15));
#742=DIRECTION('ref_axis',(-1.30614478316512E-15,1.59956595812773E-31,1.));
#743=DIRECTION('center_axis',(1.,0.,0.));
#744=DIRECTION('ref_axis',(0.,0.,-1.));
#745=DIRECTION('',(0.,1.,0.));
#746=DIRECTION('',(0.,1.,0.));
#747=DIRECTION('center_axis',(0.,0.,1.));
#748=DIRECTION('ref_axis',(1.,-1.22464674570883E-16,0.));
#749=DIRECTION('',(0.,1.,0.));
#750=DIRECTION('center_axis',(-1.,0.,0.));
#751=DIRECTION('ref_axis',(0.,0.,1.));
#752=DIRECTION('',(0.,1.,0.));
#753=DIRECTION('center_axis',(0.,0.,-1.));
#754=DIRECTION('ref_axis',(-1.,1.22464674570883E-16,0.));
#755=DIRECTION('',(0.,0.,1.));
#756=DIRECTION('',(1.,0.,0.));
#757=CARTESIAN_POINT('',(0.,0.,0.));
#758=CARTESIAN_POINT('',(0.,0.,0.));
#759=CARTESIAN_POINT('Origin',(10.100019023838,38.66757356609,3.25005071063));
#760=CARTESIAN_POINT('',(11.375018976678,39.16757356609,3.35005071063));
#761=CARTESIAN_POINT('',(9.675019039558,39.16757356609,3.35005071063));
#762=CARTESIAN_POINT('',(10.100019023838,39.16757356609,3.35005071063));
#763=CARTESIAN_POINT('',(9.475019039558,38.16757356609,3.15005071063));
#764=CARTESIAN_POINT('',(9.675019039558,39.16757356609,3.35005071063));
#765=CARTESIAN_POINT('',(11.575018976678,38.16757356609,3.15005071063));
#766=CARTESIAN_POINT('',(10.100019023838,38.16757356609,3.15005071063));
#767=CARTESIAN_POINT('',(11.575018976678,38.16757356609,3.15005071063));
#768=CARTESIAN_POINT('Origin',(11.475018976678,38.66757356609,3.77505069491));
#769=CARTESIAN_POINT('',(11.575018976678,38.16757356609,5.25005064775));
#770=CARTESIAN_POINT('',(11.575018976678,38.16757356609,3.77505069491));
#771=CARTESIAN_POINT('',(11.375018976678,39.16757356609,5.05005064775));
#772=CARTESIAN_POINT('',(11.575018976678,38.16757356609,5.25005064775));
#773=CARTESIAN_POINT('',(11.375018976678,39.16757356609,3.77505069491));
#774=CARTESIAN_POINT('Origin',(10.950018992398,38.66757356609,5.15005064775));
#775=CARTESIAN_POINT('',(9.675019039558,39.16757356609,5.05005064775));
#776=CARTESIAN_POINT('',(10.950018992398,39.16757356609,5.05005064775));
#777=CARTESIAN_POINT('',(9.475019039558,38.16757356609,5.25005064775));
#778=CARTESIAN_POINT('',(10.950018992398,38.16757356609,5.25005064775));
#779=CARTESIAN_POINT('',(9.475019039558,38.16757356609,5.25005064775));
#780=CARTESIAN_POINT('Origin',(9.575019039558,38.66757356609,4.62505066347));
#781=CARTESIAN_POINT('',(9.675019039558,39.16757356609,4.62505066347));
#782=CARTESIAN_POINT('',(9.475019039558,38.16757356609,4.62505066347));
#783=CARTESIAN_POINT('Origin',(9.675019039558,38.16757356609,5.05005064775));
#784=CARTESIAN_POINT('',(9.675019039558,40.66757356609,3.35005071063));
#785=CARTESIAN_POINT('',(9.675019039558,38.16757356609,3.35005071063));
#786=CARTESIAN_POINT('',(9.675019039558,40.66757356609,5.05005064775));
#787=CARTESIAN_POINT('',(9.675019039558,40.66757356609,5.05005064775));
#788=CARTESIAN_POINT('',(9.675019039558,38.16757356609,5.05005064775));
#789=CARTESIAN_POINT('Origin',(9.675019039558,38.16757356609,3.35005071063));
#790=CARTESIAN_POINT('',(11.375018976678,40.66757356609,3.35005071063));
#791=CARTESIAN_POINT('',(11.375018976678,38.16757356609,3.35005071063));
#792=CARTESIAN_POINT('',(9.675019039558,40.66757356609,3.35005071063));
#793=CARTESIAN_POINT('Origin',(10.525019008118,38.16757356609,4.20005067919));
#794=CARTESIAN_POINT('',(8.175019039558,38.16757356609,1.85005071063));
#795=CARTESIAN_POINT('',(12.875018976678,38.16757356609,1.85005071063));
#796=CARTESIAN_POINT('',(8.175019039558,38.16757356609,1.85005071063));
#797=CARTESIAN_POINT('',(12.875018976678,38.16757356609,6.55005064775));
#798=CARTESIAN_POINT('',(12.875018976678,38.16757356609,1.85005071063));
#799=CARTESIAN_POINT('',(8.175019039558,38.16757356609,6.55005064775));
#800=CARTESIAN_POINT('',(12.875018976678,38.16757356609,6.55005064775));
#801=CARTESIAN_POINT('',(8.175019039558,38.16757356609,6.55005064775));
#802=CARTESIAN_POINT('Origin',(12.975018992398,41.41757356609,1.20005071063));
#803=CARTESIAN_POINT('',(5.775019039558,41.16757356609,0.950050710630001));
#804=CARTESIAN_POINT('',(5.775019039558,41.66757356609,1.45005071063));
#805=CARTESIAN_POINT('',(5.775019039558,41.16757356609,0.950050710630001));
#806=CARTESIAN_POINT('',(15.375018976678,41.66757356609,1.45005071063));
#807=CARTESIAN_POINT('',(12.975018992398,41.66757356609,1.45005071063));
#808=CARTESIAN_POINT('',(15.375018976678,41.16757356609,0.950050710630001));
#809=CARTESIAN_POINT('',(15.375018976678,41.66757356609,1.45005071063));
#810=CARTESIAN_POINT('',(12.975018992398,41.16757356609,0.950050710630001));
#811=CARTESIAN_POINT('Origin',(15.375018976678,41.41757356609,1.95005071063));
#812=CARTESIAN_POINT('',(15.875018976678,41.66757356609,1.95005071063));
#813=CARTESIAN_POINT('Origin',(15.375018976678,41.66757356609,1.95005071063));
#814=CARTESIAN_POINT('',(16.375018976678,41.16757356609,1.95005071063));
#815=CARTESIAN_POINT('',(15.875018976678,41.66757356609,1.95005071063));
#816=CARTESIAN_POINT('Origin',(15.375018976678,41.16757356609,1.95005071063));
#817=CARTESIAN_POINT('Origin',(5.775019039558,41.41757356609,1.95005071063));
#818=CARTESIAN_POINT('',(4.775019039558,41.16757356609,1.95005071063));
#819=CARTESIAN_POINT('',(5.275019039558,41.66757356609,1.95005071063));
#820=CARTESIAN_POINT('',(4.775019039558,41.16757356609,1.95005071063));
#821=CARTESIAN_POINT('Origin',(5.775019039558,41.66757356609,1.95005071063));
#822=CARTESIAN_POINT('Origin',(5.775019039558,41.16757356609,1.95005071063));
#823=CARTESIAN_POINT('Origin',(16.125018976678,41.41757356609,5.32505066347));
#824=CARTESIAN_POINT('',(15.875018976678,41.66757356609,6.45005064775));
#825=CARTESIAN_POINT('',(15.875018976678,41.66757356609,5.32505066347));
#826=CARTESIAN_POINT('',(16.375018976678,41.16757356609,6.45005064775));
#827=CARTESIAN_POINT('',(15.875018976678,41.66757356609,6.45005064775));
#828=CARTESIAN_POINT('',(16.375018976678,41.16757356609,5.32505066347));
#829=CARTESIAN_POINT('Origin',(5.025019039558,41.41757356609,3.07505069491));
#830=CARTESIAN_POINT('',(4.775019039558,41.16757356609,6.45005064775));
#831=CARTESIAN_POINT('',(5.275019039558,41.66757356609,6.45005064775));
#832=CARTESIAN_POINT('',(4.775019039558,41.16757356609,6.45005064775));
#833=CARTESIAN_POINT('',(5.275019039558,41.66757356609,3.07505069491));
#834=CARTESIAN_POINT('',(4.775019039558,41.16757356609,3.07505069491));
#835=CARTESIAN_POINT('Origin',(15.375018976678,41.41757356609,6.45005064775));
#836=CARTESIAN_POINT('',(15.375018976678,41.66757356609,6.95005064775));
#837=CARTESIAN_POINT('Origin',(15.375018976678,41.66757356609,6.45005064775));
#838=CARTESIAN_POINT('',(15.375018976678,41.16757356609,7.45005064775));
#839=CARTESIAN_POINT('',(15.375018976678,41.66757356609,6.95005064775));
#840=CARTESIAN_POINT('Origin',(15.375018976678,41.16757356609,6.45005064775));
#841=CARTESIAN_POINT('Origin',(5.775019039558,41.41757356609,6.45005064775));
#842=CARTESIAN_POINT('',(5.775019039558,41.16757356609,7.45005064775));
#843=CARTESIAN_POINT('',(5.775019039558,41.66757356609,6.95005064775));
#844=CARTESIAN_POINT('',(5.775019039558,41.16757356609,7.45005064775));
#845=CARTESIAN_POINT('Origin',(5.775019039558,41.66757356609,6.45005064775));
#846=CARTESIAN_POINT('Origin',(5.775019039558,41.16757356609,6.45005064775));
#847=CARTESIAN_POINT('Origin',(8.175019023838,41.41757356609,7.20005064775));
#848=CARTESIAN_POINT('',(8.175019023838,41.66757356609,6.95005064775));
#849=CARTESIAN_POINT('',(8.175019023838,41.16757356609,7.45005064775));
#850=CARTESIAN_POINT('Origin',(5.775019039558,40.66757356609,6.45005064775));
#851=CARTESIAN_POINT('',(4.775019039558,40.66757356609,6.45005064775));
#852=CARTESIAN_POINT('',(4.775019039558,40.66757356609,6.45005064775));
#853=CARTESIAN_POINT('',(5.775019039558,40.66757356609,7.45005064775));
#854=CARTESIAN_POINT('Origin',(5.775019039558,40.66757356609,6.45005064775));
#855=CARTESIAN_POINT('',(5.775019039558,40.66757356609,7.45005064775));
#856=CARTESIAN_POINT('Origin',(4.775019039558,40.66757356609,1.95005071063));
#857=CARTESIAN_POINT('',(4.775019039558,40.66757356609,1.95005071063));
#858=CARTESIAN_POINT('',(4.775019039558,40.66757356609,1.95005071063));
#859=CARTESIAN_POINT('',(4.775019039558,40.66757356609,6.45005064775));
#860=CARTESIAN_POINT('Origin',(5.775019039558,40.66757356609,1.95005071063));
#861=CARTESIAN_POINT('',(5.775019039558,40.66757356609,0.950050710630001));
#862=CARTESIAN_POINT('',(5.775019039558,40.66757356609,0.950050710630001));
#863=CARTESIAN_POINT('Origin',(5.775019039558,40.66757356609,1.95005071063));
#864=CARTESIAN_POINT('Origin',(15.375018976678,40.66757356609,0.950050710630001));
#865=CARTESIAN_POINT('',(15.375018976678,40.66757356609,0.950050710630001));
#866=CARTESIAN_POINT('',(15.375018976678,40.66757356609,0.950050710630001));
#867=CARTESIAN_POINT('',(5.775019039558,40.66757356609,0.950050710630001));
#868=CARTESIAN_POINT('Origin',(10.575019008118,41.66757356609,4.20005067919));
#869=CARTESIAN_POINT('Origin',(10.575019008118,40.66757356609,4.20005067919));
#870=CARTESIAN_POINT('',(16.375018976678,40.66757356609,1.95005071063));
#871=CARTESIAN_POINT('Origin',(15.375018976678,40.66757356609,1.95005071063));
#872=CARTESIAN_POINT('',(16.375018976678,40.66757356609,6.45005064775));
#873=CARTESIAN_POINT('',(16.375018976678,40.66757356609,1.95005071063));
#874=CARTESIAN_POINT('',(15.375018976678,40.66757356609,7.45005064775));
#875=CARTESIAN_POINT('Origin',(15.375018976678,40.66757356609,6.45005064775));
#876=CARTESIAN_POINT('',(15.375018976678,40.66757356609,7.45005064775));
#877=CARTESIAN_POINT('',(12.875018976678,40.66757356609,6.55005064775));
#878=CARTESIAN_POINT('',(12.875018976678,40.66757356609,1.85005071063));
#879=CARTESIAN_POINT('',(12.875018976678,40.66757356609,1.85005071063));
#880=CARTESIAN_POINT('',(8.175019039558,40.66757356609,1.85005071063));
#881=CARTESIAN_POINT('',(8.175019039558,40.66757356609,1.85005071063));
#882=CARTESIAN_POINT('',(8.175019039558,40.66757356609,6.55005064775));
#883=CARTESIAN_POINT('',(8.175019039558,40.66757356609,6.55005064775));
#884=CARTESIAN_POINT('',(12.875018976678,40.66757356609,6.55005064775));
#885=CARTESIAN_POINT('Origin',(10.575019008118,40.66757356609,4.20005067919));
#886=CARTESIAN_POINT('',(11.375018976678,40.66757356609,5.05005064775));
#887=CARTESIAN_POINT('',(11.375018976678,40.66757356609,3.35005071063));
#888=CARTESIAN_POINT('',(11.375018976678,40.66757356609,5.05005064775));
#889=CARTESIAN_POINT('Origin',(16.375018976678,40.66757356609,6.45005064775));
#890=CARTESIAN_POINT('',(16.375018976678,40.66757356609,6.45005064775));
#891=CARTESIAN_POINT('',(16.375018976678,40.66757356609,1.95005071063));
#892=CARTESIAN_POINT('Origin',(15.375018976678,40.66757356609,6.45005064775));
#893=CARTESIAN_POINT('',(15.375018976678,40.66757356609,7.45005064775));
#894=CARTESIAN_POINT('Origin',(5.775019039558,40.66757356609,7.45005064775));
#895=CARTESIAN_POINT('Origin',(15.375018976678,40.66757356609,1.95005071063));
#896=CARTESIAN_POINT('Origin',(11.375018976678,38.16757356609,5.05005064775));
#897=CARTESIAN_POINT('',(11.375018976678,38.16757356609,5.05005064775));
#898=CARTESIAN_POINT('Origin',(11.375018976678,38.16757356609,3.35005071063));
#899=CARTESIAN_POINT('Origin',(12.875018976678,38.16757356609,6.55005064775));
#900=CARTESIAN_POINT('',(12.875018976678,38.16757356609,1.85005071063));
#901=CARTESIAN_POINT('',(12.875018976678,38.16757356609,6.55005064775));
#902=CARTESIAN_POINT('Origin',(8.175019039558,38.16757356609,6.55005064775));
#903=CARTESIAN_POINT('',(8.175019039558,38.16757356609,6.55005064775));
#904=CARTESIAN_POINT('Origin',(8.175019039558,38.16757356609,1.85005071063));
#905=CARTESIAN_POINT('',(8.175019039558,38.16757356609,1.85005071063));
#906=CARTESIAN_POINT('Origin',(12.875018976678,38.16757356609,1.85005071063));
#907=CARTESIAN_POINT('',(0.,0.999999999999996,0.));
#908=UNCERTAINTY_MEASURE_WITH_UNIT(LENGTH_MEASURE(0.01),#914,
'DISTANCE_ACCURACY_VALUE',
'Maximum model space distance between geometric entities at asserted c
onnectivities');
#909=UNCERTAINTY_MEASURE_WITH_UNIT(LENGTH_MEASURE(0.01),#914,
'DISTANCE_ACCURACY_VALUE',
'Maximum model space distance between geometric entities at asserted c
onnectivities');
#910=UNCERTAINTY_MEASURE_WITH_UNIT(LENGTH_MEASURE(0.01),#914,
'DISTANCE_ACCURACY_VALUE',
'Maximum model space distance between geometric entities at asserted c
onnectivities');
#911=(
GEOMETRIC_REPRESENTATION_CONTEXT(3)
GLOBAL_UNCERTAINTY_ASSIGNED_CONTEXT((#908))
GLOBAL_UNIT_ASSIGNED_CONTEXT((#914,#916,#917))
REPRESENTATION_CONTEXT('','3D')
);
#912=(
GEOMETRIC_REPRESENTATION_CONTEXT(3)
GLOBAL_UNCERTAINTY_ASSIGNED_CONTEXT((#909))
GLOBAL_UNIT_ASSIGNED_CONTEXT((#914,#916,#917))
REPRESENTATION_CONTEXT('','3D')
);
#913=(
GEOMETRIC_REPRESENTATION_CONTEXT(3)
GLOBAL_UNCERTAINTY_ASSIGNED_CONTEXT((#910))
GLOBAL_UNIT_ASSIGNED_CONTEXT((#914,#916,#917))
REPRESENTATION_CONTEXT('','3D')
);
#914=(
LENGTH_UNIT()
NAMED_UNIT(*)
SI_UNIT(.MILLI.,.METRE.)
);
#915=(
LENGTH_UNIT()
NAMED_UNIT(*)
SI_UNIT($,.METRE.)
);
#916=(
NAMED_UNIT(*)
PLANE_ANGLE_UNIT()
SI_UNIT($,.RADIAN.)
);
#917=(
NAMED_UNIT(*)
SI_UNIT($,.STERADIAN.)
SOLID_ANGLE_UNIT()
);
#918=SHAPE_DEFINITION_REPRESENTATION(#920,#923);
#919=SHAPE_DEFINITION_REPRESENTATION(#921,#924);
#920=PRODUCT_DEFINITION_SHAPE('',$,#926);
#921=PRODUCT_DEFINITION_SHAPE('',$,#927);
#922=PRODUCT_DEFINITION_SHAPE($,$,#14);
#923=SHAPE_REPRESENTATION('',(#556,#602),#911);
#924=SHAPE_REPRESENTATION('',(#557),#912);
#925=PRODUCT_DEFINITION_CONTEXT('part definition',#933,'design');
#926=PRODUCT_DEFINITION('3D_ESP32-BLUETOOTHSPEAKER-V1.1_2025-12-09',
'3D_ESP32-BLUETOOTHSPEAKER-V1.1_2025-12-09',#928,#925);
#927=PRODUCT_DEFINITION('button','button',#929,#925);
#928=PRODUCT_DEFINITION_FORMATION('',$,#935);
#929=PRODUCT_DEFINITION_FORMATION('',$,#936);
#930=PRODUCT_RELATED_PRODUCT_CATEGORY(
'3D_ESP32-BLUETOOTHSPEAKER-V1.1_2025-12-09',
'3D_ESP32-BLUETOOTHSPEAKER-V1.1_2025-12-09',(#935));
#931=PRODUCT_RELATED_PRODUCT_CATEGORY('button','button',(#936));
#932=APPLICATION_PROTOCOL_DEFINITION('international standard',
'automotive_design',2009,#933);
#933=APPLICATION_CONTEXT(
'Core Data for Automotive Mechanical Design Process');
#934=PRODUCT_CONTEXT('part definition',#933,'mechanical');
#935=PRODUCT('3D_ESP32-BLUETOOTHSPEAKER-V1.1_2025-12-09',
'3D_ESP32-BLUETOOTHSPEAKER-V1.1_2025-12-09',$,(#934));
#936=PRODUCT('button','button',$,(#934));
#937=PRESENTATION_STYLE_ASSIGNMENT((#939));
#938=PRESENTATION_STYLE_ASSIGNMENT((#940));
#939=SURFACE_STYLE_USAGE(.BOTH.,#941);
#940=SURFACE_STYLE_USAGE(.BOTH.,#942);
#941=SURFACE_SIDE_STYLE('',(#943));
#942=SURFACE_SIDE_STYLE('',(#944));
#943=SURFACE_STYLE_FILL_AREA(#945);
#944=SURFACE_STYLE_FILL_AREA(#946);
#945=FILL_AREA_STYLE('\X2\94A2\X0\ - \X2\7F0E5149\X0\',(#947));
#946=FILL_AREA_STYLE('\X2\4E597F29919B68118102\X0\(\X2\767D8272\X0\)',(#948));
#947=FILL_AREA_STYLE_COLOUR('\X2\94A2\X0\ - \X2\7F0E5149\X0\',#949);
#948=FILL_AREA_STYLE_COLOUR('\X2\4E597F29919B68118102\X0\(\X2\767D8272\X0\)',
#950);
#949=COLOUR_RGB('\X2\94A2\X0\ - \X2\7F0E5149\X0\',0.627450980392157,0.627450980392157,
0.627450980392157);
#950=COLOUR_RGB('\X2\4E597F29919B68118102\X0\(\X2\767D8272\X0\)',0.972549019607843,
0.968627450980392,0.929411764705882);
ENDSEC;
END-ISO-10303-21;
